<?xml version="1.0" encoding="utf-8"?>
<!-- Generator: Adobe Illustrator 24.1.2, SVG Export Plug-In . SVG Version: 6.00 Build 0)  -->
<svg version="1.1" id="Capa_3" xmlns="http://www.w3.org/2000/svg" xmlns:xlink="http://www.w3.org/1999/xlink" x="0px" y="0px"
	 viewBox="0 0 105.08 219.56" style="enable-background:new 0 0 105.08 219.56;" xml:space="preserve">
<style type="text/css">
	.st0{fill:#FFFFFF;}
</style>
<path class="st0" d="M101.77,151.8l-0.2,16.24l-48.71,48.71L4.33,168.04l0.21-16.24l0.44-0.88l14.75-29.31l1.25-2.49l-0.05,3.58
	l-0.36,28.9l0.31,0.31c-0.01,0.06,0,0.1,0,0.16c0.07,0.01,0.13,0.02,0.2,0.03l31.78,32.17l31.75-32.16
	c0.21-0.05,0.43-0.08,0.65-0.12c0.01-0.14,0.01-0.28,0.01-0.4c0.01-0.18,0.01-0.37,0.01-0.55c0-8.57-3.34-16.34-8.79-22.11
	c-5.32-5.64-12.65-9.36-20.85-10.01c-0.01-0.01-0.02-0.01-0.03,0c-0.38-0.05-0.77-0.07-1.17-0.08c-0.44-0.02-0.9-0.03-1.36-0.03
	c-0.5,0-0.99,0.01-1.48,0.05c-0.32,0.01-0.65,0.03-0.97,0.07c0,0,0,0-0.01,0c-8.88-0.46-17.13-3.31-24.11-7.93
	c0-0.01,0.01-0.01,0.01-0.01c-1.24-0.81-2.43-1.68-3.58-2.59c-0.52-0.4-1.04-0.83-1.54-1.28c-0.59-0.51-1.16-1.03-1.72-1.56
	c-0.02-0.02-0.05-0.05-0.07-0.06c-0.94-0.9-1.83-1.83-2.69-2.8c-5.58-6.3-9.56-14.07-11.3-22.64c-0.13-0.66-0.25-1.33-0.36-2
	c-0.2-1.31-0.36-2.64-0.46-3.98c-0.02-0.32-0.05-0.64-0.06-0.95c-0.01-0.2-0.02-0.38-0.03-0.57c-0.01-0.27-0.02-0.52-0.02-0.77
	c-0.01-0.49-0.02-0.97-0.02-1.46c0-0.3,0-0.61,0.01-0.91c0.01-0.64,0.03-1.26,0.08-1.88c0.03-0.58,0.08-1.16,0.13-1.72
	c0.01-0.08,0.02-0.16,0.02-0.24c0-0.02,0-0.06,0.01-0.08c0.06-0.55,0.13-1.11,0.2-1.66v-0.03c0.09-0.6,0.18-1.21,0.29-1.81
	c0.43,2.76,1.09,5.46,1.95,8.05c6.23,18.49,23.27,31.97,43.59,32.91c0.75,0.02,1.51,0.05,2.27,0.05c0.81,0,1.61-0.02,2.42-0.06
	c8.9,0.4,17.18,3.25,24.18,7.85c0.05,0.02,0.08,0.06,0.13,0.09c3.43,2.25,6.57,4.94,9.29,7.98c7.77,8.58,12.48,19.95,12.48,32.42
	c0,0.18,0,0.37-0.01,0.54H101.77z"/>
<path class="st0" d="M4.65,50.35c0-0.28,0-0.55,0.01-0.82c0.09-5.63,1.15-11.02,3.01-16.01c1.83,0.32,3.71,0.5,5.63,0.5
	c5.4,0,10.49-1.34,14.96-3.7c3.89-2.06,7.32-4.88,10.07-8.29c3.8-4.69,6.32-10.46,7.01-16.78c0.09-0.88,0.16-1.78,0.17-2.68
	c2.48-0.39,5.02-0.6,7.61-0.6c2.89,0,5.73,0.27,8.47,0.74c0.02,0.01,0.06,0.01,0.08,0.01c0.24,7.54,3.08,14.43,7.64,19.81
	c2.46,2.91,5.42,5.38,8.76,7.26c4.67,2.65,10.06,4.16,15.81,4.16c1.61,0,3.19-0.12,4.73-0.35c1.84,4.98,2.9,10.35,2.98,15.95
	c0.01,0.27,0.01,0.53,0.01,0.8c0,12.36-4.64,23.64-12.3,32.19c-3.57-3.92-7.78-7.26-12.47-9.84c5.48-5.77,8.84-13.56,8.84-22.15
	c0-0.35,0-0.68-0.02-1.03C72.26,47.28,60.72,39.5,53.44,28.6C46.15,39.55,34.57,47.35,21.13,49.6c-0.02,0.32-0.02,0.64-0.02,0.96
	c0,8.57,3.35,16.34,8.81,22.11c5.33,5.64,12.68,9.36,20.91,10.01c0.01,0.01,0.02,0.01,0.03,0c0.38,0.05,0.78,0.07,1.17,0.08
	c0.44,0.02,0.9,0.03,1.37,0.03c0.5,0,1-0.01,1.48-0.05c0.32-0.01,0.65-0.03,0.97-0.07c0,0,0,0,0.01,0
	c8.9,0.46,17.18,3.31,24.18,7.93c0,0.01-0.01,0.01-0.01,0.01c1.24,0.81,2.43,1.68,3.59,2.59c0.52,0.4,1.04,0.83,1.54,1.28
	c0.59,0.51,1.16,1.03,1.73,1.56c0.02,0.02,0.05,0.05,0.07,0.06c0.94,0.9,1.83,1.83,2.7,2.8c5.6,6.3,9.58,14.07,11.33,22.64
	c0.13,0.66,0.26,1.33,0.36,2c0.2,1.31,0.36,2.64,0.46,3.98c0.02,0.32,0.05,0.64,0.06,0.95c0.01,0.2,0.02,0.38,0.03,0.57
	c0.01,0.27,0.02,0.52,0.02,0.77c0.01,0.49,0.02,0.97,0.02,1.46c0,0.3,0,0.61-0.01,0.91c-0.01,0.64-0.03,1.26-0.08,1.88
	c-0.03,0.58-0.08,1.16-0.13,1.72c-0.01,0.08-0.02,0.16-0.02,0.24c0,0.02,0,0.06-0.01,0.08c-0.06,0.55-0.13,1.11-0.2,1.66v0.03
	c-0.09,0.6-0.19,1.21-0.29,1.81c-0.43-2.76-1.09-5.46-1.96-8.05c-6.25-18.49-23.33-31.97-43.71-32.91
	c-0.75-0.02-1.52-0.05-2.27-0.05c-0.81,0-1.61,0.02-2.42,0.06c-8.92-0.4-17.22-3.25-24.25-7.85c-0.05-0.02-0.08-0.06-0.13-0.09
	c-3.44-2.25-6.58-4.94-9.32-7.98C9.38,74.19,4.65,62.82,4.65,50.35z"/>
</svg>
